<?xml version="1.0" encoding="UTF-8" standalone="no"?>
<!DOCTYPE svg PUBLIC "-//W3C//DTD SVG 1.1//EN"
 "http://www.w3.org/Graphics/SVG/1.1/DTD/svg11.dtd">
<!-- Generated by graphviz version 2.43.0 (0)
 -->
<!-- Title: snakemake_dag Pages: 1 -->
<svg width="2842pt" height="476pt"
 viewBox="0.00 0.00 2842.41 476.00" xmlns="http://www.w3.org/2000/svg" xmlns:xlink="http://www.w3.org/1999/xlink">
<g id="graph0" class="graph" transform="scale(1 1) rotate(0) translate(4 472)">
<title>snakemake_dag</title>
<polygon fill="white" stroke="transparent" points="-4,4 -4,-472 2838.41,-472 2838.41,4 -4,4"/>
<!-- 1 -->
<g id="node1" class="node">
<title>1</title>
<path fill="none" stroke="#56d86b" stroke-width="2" d="M130.41,-36C130.41,-36 79.41,-36 79.41,-36 73.41,-36 67.41,-30 67.41,-24 67.41,-24 67.41,-12 67.41,-12 67.41,-6 73.41,0 79.41,0 79.41,0 130.41,0 130.41,0 136.41,0 142.41,-6 142.41,-12 142.41,-12 142.41,-24 142.41,-24 142.41,-30 136.41,-36 130.41,-36"/>
<text text-anchor="middle" x="104.91" y="-15.5" font-family="sans" font-size="10.00">post_captus</text>
</g>
<!-- 2 -->
<g id="node2" class="node">
<title>2</title>
<path fill="none" stroke="#56b1d8" stroke-width="2" d="M131.91,-108C131.91,-108 77.91,-108 77.91,-108 71.91,-108 65.91,-102 65.91,-96 65.91,-96 65.91,-84 65.91,-84 65.91,-78 71.91,-72 77.91,-72 77.91,-72 131.91,-72 131.91,-72 137.91,-72 143.91,-78 143.91,-84 143.91,-84 143.91,-96 143.91,-96 143.91,-102 137.91,-108 131.91,-108"/>
<text text-anchor="middle" x="104.91" y="-87.5" font-family="sans" font-size="10.00">captus_align</text>
</g>
<!-- 2&#45;&gt;1 -->
<g id="edge1" class="edge">
<title>2&#45;&gt;1</title>
<path fill="none" stroke="grey" stroke-width="2" d="M104.91,-71.7C104.91,-63.98 104.91,-54.71 104.91,-46.11"/>
<polygon fill="grey" stroke="grey" stroke-width="2" points="108.41,-46.1 104.91,-36.1 101.41,-46.1 108.41,-46.1"/>
</g>
<!-- 3 -->
<g id="node3" class="node">
<title>3</title>
<path fill="none" stroke="#56c9d8" stroke-width="2" d="M182.41,-180C182.41,-180 27.41,-180 27.41,-180 21.41,-180 15.41,-174 15.41,-168 15.41,-168 15.41,-156 15.41,-156 15.41,-150 21.41,-144 27.41,-144 27.41,-144 182.41,-144 182.41,-144 188.41,-144 194.41,-150 194.41,-156 194.41,-156 194.41,-168 194.41,-168 194.41,-174 188.41,-180 182.41,-180"/>
<text text-anchor="middle" x="104.91" y="-159.5" font-family="sans" font-size="10.00">captus_replace_temporary_paths</text>
</g>
<!-- 3&#45;&gt;2 -->
<g id="edge2" class="edge">
<title>3&#45;&gt;2</title>
<path fill="none" stroke="grey" stroke-width="2" d="M104.91,-143.7C104.91,-135.98 104.91,-126.71 104.91,-118.11"/>
<polygon fill="grey" stroke="grey" stroke-width="2" points="108.41,-118.1 104.91,-108.1 101.41,-118.1 108.41,-118.1"/>
</g>
<!-- 4 -->
<g id="node4" class="node">
<title>4</title>
<path fill="none" stroke="#d85656" stroke-width="2" d="M207.41,-324C207.41,-324 142.41,-324 142.41,-324 136.41,-324 130.41,-318 130.41,-312 130.41,-312 130.41,-300 130.41,-300 130.41,-294 136.41,-288 142.41,-288 142.41,-288 207.41,-288 207.41,-288 213.41,-288 219.41,-294 219.41,-300 219.41,-300 219.41,-312 219.41,-312 219.41,-318 213.41,-324 207.41,-324"/>
<text text-anchor="middle" x="174.91" y="-303.5" font-family="sans" font-size="10.00">captus_extract</text>
</g>
<!-- 4&#45;&gt;2 -->
<g id="edge3" class="edge">
<title>4&#45;&gt;2</title>
<path fill="none" stroke="grey" stroke-width="2" d="M133.67,-287.99C92.76,-268.6 32.44,-232.63 5.91,-180 -1.29,-165.71 -2.31,-157.73 5.91,-144 17.06,-125.39 37.22,-112.94 56.46,-104.82"/>
<polygon fill="grey" stroke="grey" stroke-width="2" points="57.75,-108.07 65.78,-101.17 55.2,-101.55 57.75,-108.07"/>
</g>
<!-- 4&#45;&gt;3 -->
<g id="edge5" class="edge">
<title>4&#45;&gt;3</title>
<path fill="none" stroke="grey" stroke-width="2" d="M164.06,-287.62C157.85,-277.41 150.1,-264.16 143.91,-252 133.38,-231.33 122.91,-207.18 115.47,-189.26"/>
<polygon fill="grey" stroke="grey" stroke-width="2" points="118.71,-187.92 111.67,-180 112.23,-190.58 118.71,-187.92"/>
</g>
<!-- 8 -->
<g id="node8" class="node">
<title>8</title>
<path fill="none" stroke="#56d892" stroke-width="2" d="M310.91,-252C310.91,-252 164.91,-252 164.91,-252 158.91,-252 152.91,-246 152.91,-240 152.91,-240 152.91,-228 152.91,-228 152.91,-222 158.91,-216 164.91,-216 164.91,-216 310.91,-216 310.91,-216 316.91,-216 322.91,-222 322.91,-228 322.91,-228 322.91,-240 322.91,-240 322.91,-246 316.91,-252 310.91,-252"/>
<text text-anchor="middle" x="237.91" y="-231.5" font-family="sans" font-size="10.00">captus_extract_summary_stats</text>
</g>
<!-- 4&#45;&gt;8 -->
<g id="edge9" class="edge">
<title>4&#45;&gt;8</title>
<path fill="none" stroke="grey" stroke-width="2" d="M190.48,-287.7C198.11,-279.22 207.43,-268.86 215.79,-259.58"/>
<polygon fill="grey" stroke="grey" stroke-width="2" points="218.43,-261.88 222.52,-252.1 213.23,-257.2 218.43,-261.88"/>
</g>
<!-- 5 -->
<g id="node5" class="node">
<title>5</title>
<path fill="none" stroke="#78d856" stroke-width="2" d="M1427.41,-396C1427.41,-396 1262.41,-396 1262.41,-396 1256.41,-396 1250.41,-390 1250.41,-384 1250.41,-384 1250.41,-372 1250.41,-372 1250.41,-366 1256.41,-360 1262.41,-360 1262.41,-360 1427.41,-360 1427.41,-360 1433.41,-360 1439.41,-366 1439.41,-372 1439.41,-372 1439.41,-384 1439.41,-384 1439.41,-390 1433.41,-396 1427.41,-396"/>
<text text-anchor="middle" x="1344.91" y="-375.5" font-family="sans" font-size="10.00">captus_with_misc_collect_namelist</text>
</g>
<!-- 5&#45;&gt;4 -->
<g id="edge6" class="edge">
<title>5&#45;&gt;4</title>
<path fill="none" stroke="grey" stroke-width="2" d="M1250.16,-371.33C1015.76,-357.31 414.43,-321.33 229.71,-310.28"/>
<polygon fill="grey" stroke="grey" stroke-width="2" points="229.88,-306.78 219.69,-309.68 229.46,-313.77 229.88,-306.78"/>
</g>
<!-- 11 -->
<g id="node11" class="node">
<title>11</title>
<path fill="none" stroke="#9fd856" stroke-width="2" d="M724.91,-324C724.91,-324 560.91,-324 560.91,-324 554.91,-324 548.91,-318 548.91,-312 548.91,-312 548.91,-300 548.91,-300 548.91,-294 554.91,-288 560.91,-288 560.91,-288 724.91,-288 724.91,-288 730.91,-288 736.91,-294 736.91,-300 736.91,-300 736.91,-312 736.91,-312 736.91,-318 730.91,-324 724.91,-324"/>
<text text-anchor="middle" x="642.91" y="-303.5" font-family="sans" font-size="10.00">captus_with_duplicate_loci_extract</text>
</g>
<!-- 5&#45;&gt;11 -->
<g id="edge14" class="edge">
<title>5&#45;&gt;11</title>
<path fill="none" stroke="grey" stroke-width="2" d="M1250.24,-367.56C1119.07,-354.48 882.9,-330.93 746.94,-317.37"/>
<polygon fill="grey" stroke="grey" stroke-width="2" points="747.22,-313.88 736.92,-316.37 746.53,-320.85 747.22,-313.88"/>
</g>
<!-- 16 -->
<g id="node16" class="node">
<title>16</title>
<path fill="none" stroke="#d8cb56" stroke-width="2" d="M1241.41,-324C1241.41,-324 1104.41,-324 1104.41,-324 1098.41,-324 1092.41,-318 1092.41,-312 1092.41,-312 1092.41,-300 1092.41,-300 1092.41,-294 1098.41,-288 1104.41,-288 1104.41,-288 1241.41,-288 1241.41,-288 1247.41,-288 1253.41,-294 1253.41,-300 1253.41,-300 1253.41,-312 1253.41,-312 1253.41,-318 1247.41,-324 1241.41,-324"/>
<text text-anchor="middle" x="1172.91" y="-303.5" font-family="sans" font-size="10.00">captus_with_external_extract</text>
</g>
<!-- 5&#45;&gt;16 -->
<g id="edge21" class="edge">
<title>5&#45;&gt;16</title>
<path fill="none" stroke="grey" stroke-width="2" d="M1302.84,-359.88C1279.11,-350.22 1249.3,-338.09 1224.21,-327.88"/>
<polygon fill="grey" stroke="grey" stroke-width="2" points="1225.43,-324.6 1214.85,-324.07 1222.79,-331.08 1225.43,-324.6"/>
</g>
<!-- 21 -->
<g id="node21" class="node">
<title>21</title>
<path fill="none" stroke="#d88556" stroke-width="2" d="M1562.41,-324C1562.41,-324 1443.41,-324 1443.41,-324 1437.41,-324 1431.41,-318 1431.41,-312 1431.41,-312 1431.41,-300 1431.41,-300 1431.41,-294 1437.41,-288 1443.41,-288 1443.41,-288 1562.41,-288 1562.41,-288 1568.41,-288 1574.41,-294 1574.41,-300 1574.41,-300 1574.41,-312 1574.41,-312 1574.41,-318 1568.41,-324 1562.41,-324"/>
<text text-anchor="middle" x="1502.91" y="-303.5" font-family="sans" font-size="10.00">captus_with_misc_extract</text>
</g>
<!-- 5&#45;&gt;21 -->
<g id="edge28" class="edge">
<title>5&#45;&gt;21</title>
<path fill="none" stroke="grey" stroke-width="2" d="M1383.56,-359.88C1405.16,-350.31 1432.26,-338.3 1455.18,-328.15"/>
<polygon fill="grey" stroke="grey" stroke-width="2" points="1456.66,-331.32 1464.39,-324.07 1453.83,-324.92 1456.66,-331.32"/>
</g>
<!-- 26 -->
<g id="node26" class="node">
<title>26</title>
<path fill="none" stroke="#56d8c1" stroke-width="2" d="M2109.91,-324C2109.91,-324 1969.91,-324 1969.91,-324 1963.91,-324 1957.91,-318 1957.91,-312 1957.91,-312 1957.91,-300 1957.91,-300 1957.91,-294 1963.91,-288 1969.91,-288 1969.91,-288 2109.91,-288 2109.91,-288 2115.91,-288 2121.91,-294 2121.91,-300 2121.91,-300 2121.91,-312 2121.91,-312 2121.91,-318 2115.91,-324 2109.91,-324"/>
<text text-anchor="middle" x="2039.91" y="-303.5" font-family="sans" font-size="10.00">captus_with_outgroup_extract</text>
</g>
<!-- 5&#45;&gt;26 -->
<g id="edge35" class="edge">
<title>5&#45;&gt;26</title>
<path fill="none" stroke="grey" stroke-width="2" d="M1439.73,-367.45C1573.31,-354 1815.35,-329.62 1947.58,-316.3"/>
<polygon fill="grey" stroke="grey" stroke-width="2" points="1948.09,-319.77 1957.69,-315.28 1947.38,-312.8 1948.09,-319.77"/>
</g>
<!-- 30 -->
<g id="node30" class="node">
<title>30</title>
<path fill="none" stroke="#56d8a9" stroke-width="2" d="M2618.91,-324C2618.91,-324 2454.91,-324 2454.91,-324 2448.91,-324 2442.91,-318 2442.91,-312 2442.91,-312 2442.91,-300 2442.91,-300 2442.91,-294 2448.91,-288 2454.91,-288 2454.91,-288 2618.91,-288 2618.91,-288 2624.91,-288 2630.91,-294 2630.91,-300 2630.91,-300 2630.91,-312 2630.91,-312 2630.91,-318 2624.91,-324 2618.91,-324"/>
<text text-anchor="middle" x="2536.91" y="-303.5" font-family="sans" font-size="10.00">captus_with_wscore_cutoff_extract</text>
</g>
<!-- 5&#45;&gt;30 -->
<g id="edge40" class="edge">
<title>5&#45;&gt;30</title>
<path fill="none" stroke="grey" stroke-width="2" d="M1439.44,-371.45C1659.32,-358.54 2203.78,-326.56 2432.78,-313.12"/>
<polygon fill="grey" stroke="grey" stroke-width="2" points="2433.01,-316.61 2442.78,-312.53 2432.6,-309.62 2433.01,-316.61"/>
</g>
<!-- 6 -->
<g id="node6" class="node">
<title>6</title>
<path fill="none" stroke="#d89c56" stroke-width="2" d="M1386.91,-468C1386.91,-468 1302.91,-468 1302.91,-468 1296.91,-468 1290.91,-462 1290.91,-456 1290.91,-456 1290.91,-444 1290.91,-444 1290.91,-438 1296.91,-432 1302.91,-432 1302.91,-432 1386.91,-432 1386.91,-432 1392.91,-432 1398.91,-438 1398.91,-444 1398.91,-444 1398.91,-456 1398.91,-456 1398.91,-462 1392.91,-468 1386.91,-468"/>
<text text-anchor="middle" x="1344.91" y="-447.5" font-family="sans" font-size="10.00">generate_namelist</text>
</g>
<!-- 6&#45;&gt;5 -->
<g id="edge7" class="edge">
<title>6&#45;&gt;5</title>
<path fill="none" stroke="grey" stroke-width="2" d="M1344.91,-431.7C1344.91,-423.98 1344.91,-414.71 1344.91,-406.11"/>
<polygon fill="grey" stroke="grey" stroke-width="2" points="1348.41,-406.1 1344.91,-396.1 1341.41,-406.1 1348.41,-406.1"/>
</g>
<!-- 7 -->
<g id="node7" class="node">
<title>7</title>
<path fill="none" stroke="#d8c356" stroke-width="2" d="M316.91,-180C316.91,-180 224.91,-180 224.91,-180 218.91,-180 212.91,-174 212.91,-168 212.91,-168 212.91,-156 212.91,-156 212.91,-150 218.91,-144 224.91,-144 224.91,-144 316.91,-144 316.91,-144 322.91,-144 328.91,-150 328.91,-156 328.91,-156 328.91,-168 328.91,-168 328.91,-174 322.91,-180 316.91,-180"/>
<text text-anchor="middle" x="270.91" y="-159.5" font-family="sans" font-size="10.00">captus_wscore_filter</text>
</g>
<!-- 7&#45;&gt;2 -->
<g id="edge4" class="edge">
<title>7&#45;&gt;2</title>
<path fill="none" stroke="grey" stroke-width="2" d="M230.3,-143.88C207.09,-134.09 177.82,-121.74 153.4,-111.45"/>
<polygon fill="grey" stroke="grey" stroke-width="2" points="154.53,-108.13 143.96,-107.47 151.81,-114.58 154.53,-108.13"/>
</g>
<!-- 8&#45;&gt;7 -->
<g id="edge8" class="edge">
<title>8&#45;&gt;7</title>
<path fill="none" stroke="grey" stroke-width="2" d="M246.07,-215.7C249.83,-207.73 254.36,-198.1 258.53,-189.26"/>
<polygon fill="grey" stroke="grey" stroke-width="2" points="261.75,-190.64 262.85,-180.1 255.42,-187.66 261.75,-190.64"/>
</g>
<!-- 9 -->
<g id="node9" class="node">
<title>9</title>
<path fill="none" stroke="#d89556" stroke-width="2" d="M600.41,-108C600.41,-108 447.41,-108 447.41,-108 441.41,-108 435.41,-102 435.41,-96 435.41,-96 435.41,-84 435.41,-84 435.41,-78 441.41,-72 447.41,-72 447.41,-72 600.41,-72 600.41,-72 606.41,-72 612.41,-78 612.41,-84 612.41,-84 612.41,-96 612.41,-96 612.41,-102 606.41,-108 600.41,-108"/>
<text text-anchor="middle" x="523.91" y="-87.5" font-family="sans" font-size="10.00">captus_with_duplicate_loci_align</text>
</g>
<!-- 10 -->
<g id="node10" class="node">
<title>10</title>
<path fill="none" stroke="#56b9d8" stroke-width="2" d="M650.91,-180C650.91,-180 396.91,-180 396.91,-180 390.91,-180 384.91,-174 384.91,-168 384.91,-168 384.91,-156 384.91,-156 384.91,-150 390.91,-144 396.91,-144 396.91,-144 650.91,-144 650.91,-144 656.91,-144 662.91,-150 662.91,-156 662.91,-156 662.91,-168 662.91,-168 662.91,-174 656.91,-180 650.91,-180"/>
<text text-anchor="middle" x="523.91" y="-159.5" font-family="sans" font-size="10.00">captus_with_duplicate_loci_replace_temporary_paths</text>
</g>
<!-- 10&#45;&gt;9 -->
<g id="edge12" class="edge">
<title>10&#45;&gt;9</title>
<path fill="none" stroke="grey" stroke-width="2" d="M523.91,-143.7C523.91,-135.98 523.91,-126.71 523.91,-118.11"/>
<polygon fill="grey" stroke="grey" stroke-width="2" points="527.41,-118.1 523.91,-108.1 520.41,-118.1 527.41,-118.1"/>
</g>
<!-- 11&#45;&gt;9 -->
<g id="edge11" class="edge">
<title>11&#45;&gt;9</title>
<path fill="none" stroke="grey" stroke-width="2" d="M549.84,-287.98C488.98,-271.5 413.95,-239.82 375.91,-180 367.32,-166.5 366.7,-157.08 375.91,-144 388.05,-126.76 406.34,-115.1 425.97,-107.22"/>
<polygon fill="grey" stroke="grey" stroke-width="2" points="427.2,-110.49 435.38,-103.75 424.78,-103.92 427.2,-110.49"/>
</g>
<!-- 11&#45;&gt;10 -->
<g id="edge13" class="edge">
<title>11&#45;&gt;10</title>
<path fill="none" stroke="grey" stroke-width="2" d="M619.66,-287.82C607.35,-278.09 592.44,-265.24 580.91,-252 563.9,-232.47 548.32,-207.42 537.76,-188.87"/>
<polygon fill="grey" stroke="grey" stroke-width="2" points="540.79,-187.11 532.86,-180.09 534.68,-190.53 540.79,-187.11"/>
</g>
<!-- 13 -->
<g id="node13" class="node">
<title>13</title>
<path fill="none" stroke="#b6d856" stroke-width="2" d="M847.41,-252C847.41,-252 602.41,-252 602.41,-252 596.41,-252 590.41,-246 590.41,-240 590.41,-240 590.41,-228 590.41,-228 590.41,-222 596.41,-216 602.41,-216 602.41,-216 847.41,-216 847.41,-216 853.41,-216 859.41,-222 859.41,-228 859.41,-228 859.41,-240 859.41,-240 859.41,-246 853.41,-252 847.41,-252"/>
<text text-anchor="middle" x="724.91" y="-231.5" font-family="sans" font-size="10.00">captus_with_duplicate_loci_extract_summary_stats</text>
</g>
<!-- 11&#45;&gt;13 -->
<g id="edge16" class="edge">
<title>11&#45;&gt;13</title>
<path fill="none" stroke="grey" stroke-width="2" d="M663.18,-287.7C673.41,-278.97 685.97,-268.24 697.09,-258.75"/>
<polygon fill="grey" stroke="grey" stroke-width="2" points="699.54,-261.26 704.87,-252.1 695,-255.94 699.54,-261.26"/>
</g>
<!-- 12 -->
<g id="node12" class="node">
<title>12</title>
<path fill="none" stroke="#afd856" stroke-width="2" d="M884.41,-180C884.41,-180 693.41,-180 693.41,-180 687.41,-180 681.41,-174 681.41,-168 681.41,-168 681.41,-156 681.41,-156 681.41,-150 687.41,-144 693.41,-144 693.41,-144 884.41,-144 884.41,-144 890.41,-144 896.41,-150 896.41,-156 896.41,-156 896.41,-168 896.41,-168 896.41,-174 890.41,-180 884.41,-180"/>
<text text-anchor="middle" x="788.91" y="-159.5" font-family="sans" font-size="10.00">captus_with_duplicate_loci_wscore_filter</text>
</g>
<!-- 12&#45;&gt;9 -->
<g id="edge10" class="edge">
<title>12&#45;&gt;9</title>
<path fill="none" stroke="grey" stroke-width="2" d="M724.42,-143.97C686.43,-133.93 638.2,-121.19 598.57,-110.72"/>
<polygon fill="grey" stroke="grey" stroke-width="2" points="599.25,-107.28 588.69,-108.11 597.46,-114.05 599.25,-107.28"/>
</g>
<!-- 13&#45;&gt;12 -->
<g id="edge15" class="edge">
<title>13&#45;&gt;12</title>
<path fill="none" stroke="grey" stroke-width="2" d="M740.73,-215.7C748.48,-207.22 757.95,-196.86 766.44,-187.58"/>
<polygon fill="grey" stroke="grey" stroke-width="2" points="769.11,-189.85 773.27,-180.1 763.94,-185.12 769.11,-189.85"/>
</g>
<!-- 14 -->
<g id="node14" class="node">
<title>14</title>
<path fill="none" stroke="#d86656" stroke-width="2" d="M1141.91,-108C1141.91,-108 1015.91,-108 1015.91,-108 1009.91,-108 1003.91,-102 1003.91,-96 1003.91,-96 1003.91,-84 1003.91,-84 1003.91,-78 1009.91,-72 1015.91,-72 1015.91,-72 1141.91,-72 1141.91,-72 1147.91,-72 1153.91,-78 1153.91,-84 1153.91,-84 1153.91,-96 1153.91,-96 1153.91,-102 1147.91,-108 1141.91,-108"/>
<text text-anchor="middle" x="1078.91" y="-87.5" font-family="sans" font-size="10.00">captus_with_external_align</text>
</g>
<!-- 15 -->
<g id="node15" class="node">
<title>15</title>
<path fill="none" stroke="#567bd8" stroke-width="2" d="M1192.41,-180C1192.41,-180 965.41,-180 965.41,-180 959.41,-180 953.41,-174 953.41,-168 953.41,-168 953.41,-156 953.41,-156 953.41,-150 959.41,-144 965.41,-144 965.41,-144 1192.41,-144 1192.41,-144 1198.41,-144 1204.41,-150 1204.41,-156 1204.41,-156 1204.41,-168 1204.41,-168 1204.41,-174 1198.41,-180 1192.41,-180"/>
<text text-anchor="middle" x="1078.91" y="-159.5" font-family="sans" font-size="10.00">captus_with_external_replace_temporary_paths</text>
</g>
<!-- 15&#45;&gt;14 -->
<g id="edge18" class="edge">
<title>15&#45;&gt;14</title>
<path fill="none" stroke="grey" stroke-width="2" d="M1078.91,-143.7C1078.91,-135.98 1078.91,-126.71 1078.91,-118.11"/>
<polygon fill="grey" stroke="grey" stroke-width="2" points="1082.41,-118.1 1078.91,-108.1 1075.41,-118.1 1082.41,-118.1"/>
</g>
<!-- 16&#45;&gt;14 -->
<g id="edge19" class="edge">
<title>16&#45;&gt;14</title>
<path fill="none" stroke="grey" stroke-width="2" d="M1103.84,-287.99C1049.8,-270.64 978.24,-237.84 943.91,-180 935.75,-166.24 934.9,-157.22 943.91,-144 955.85,-126.49 974.53,-114.76 994.23,-106.91"/>
<polygon fill="grey" stroke="grey" stroke-width="2" points="995.46,-110.19 1003.64,-103.47 993.05,-103.62 995.46,-110.19"/>
</g>
<!-- 16&#45;&gt;15 -->
<g id="edge20" class="edge">
<title>16&#45;&gt;15</title>
<path fill="none" stroke="grey" stroke-width="2" d="M1161.15,-287.87C1154.08,-277.52 1144.92,-264.04 1136.91,-252 1122.82,-230.82 1107.07,-206.62 1095.55,-188.81"/>
<polygon fill="grey" stroke="grey" stroke-width="2" points="1098.3,-186.62 1089.93,-180.13 1092.42,-190.42 1098.3,-186.62"/>
</g>
<!-- 18 -->
<g id="node18" class="node">
<title>18</title>
<path fill="none" stroke="#59d856" stroke-width="2" d="M1375.91,-252C1375.91,-252 1157.91,-252 1157.91,-252 1151.91,-252 1145.91,-246 1145.91,-240 1145.91,-240 1145.91,-228 1145.91,-228 1145.91,-222 1151.91,-216 1157.91,-216 1157.91,-216 1375.91,-216 1375.91,-216 1381.91,-216 1387.91,-222 1387.91,-228 1387.91,-228 1387.91,-240 1387.91,-240 1387.91,-246 1381.91,-252 1375.91,-252"/>
<text text-anchor="middle" x="1266.91" y="-231.5" font-family="sans" font-size="10.00">captus_with_external_extract_summary_stats</text>
</g>
<!-- 16&#45;&gt;18 -->
<g id="edge23" class="edge">
<title>16&#45;&gt;18</title>
<path fill="none" stroke="grey" stroke-width="2" d="M1196.15,-287.7C1208.1,-278.8 1222.83,-267.82 1235.76,-258.2"/>
<polygon fill="grey" stroke="grey" stroke-width="2" points="1238.01,-260.88 1243.94,-252.1 1233.83,-255.27 1238.01,-260.88"/>
</g>
<!-- 17 -->
<g id="node17" class="node">
<title>17</title>
<path fill="none" stroke="#97d856" stroke-width="2" d="M1398.91,-180C1398.91,-180 1234.91,-180 1234.91,-180 1228.91,-180 1222.91,-174 1222.91,-168 1222.91,-168 1222.91,-156 1222.91,-156 1222.91,-150 1228.91,-144 1234.91,-144 1234.91,-144 1398.91,-144 1398.91,-144 1404.91,-144 1410.91,-150 1410.91,-156 1410.91,-156 1410.91,-168 1410.91,-168 1410.91,-174 1404.91,-180 1398.91,-180"/>
<text text-anchor="middle" x="1316.91" y="-159.5" font-family="sans" font-size="10.00">captus_with_external_wscore_filter</text>
</g>
<!-- 17&#45;&gt;14 -->
<g id="edge17" class="edge">
<title>17&#45;&gt;14</title>
<path fill="none" stroke="grey" stroke-width="2" d="M1258.99,-143.97C1225.16,-134.01 1182.29,-121.41 1146.87,-110.99"/>
<polygon fill="grey" stroke="grey" stroke-width="2" points="1147.67,-107.57 1137.09,-108.11 1145.69,-114.29 1147.67,-107.57"/>
</g>
<!-- 18&#45;&gt;17 -->
<g id="edge22" class="edge">
<title>18&#45;&gt;17</title>
<path fill="none" stroke="grey" stroke-width="2" d="M1279.27,-215.7C1285.14,-207.47 1292.28,-197.48 1298.75,-188.42"/>
<polygon fill="grey" stroke="grey" stroke-width="2" points="1301.73,-190.28 1304.69,-180.1 1296.03,-186.21 1301.73,-190.28"/>
</g>
<!-- 19 -->
<g id="node19" class="node">
<title>19</title>
<path fill="none" stroke="#d88d56" stroke-width="2" d="M1630.41,-108C1630.41,-108 1521.41,-108 1521.41,-108 1515.41,-108 1509.41,-102 1509.41,-96 1509.41,-96 1509.41,-84 1509.41,-84 1509.41,-78 1515.41,-72 1521.41,-72 1521.41,-72 1630.41,-72 1630.41,-72 1636.41,-72 1642.41,-78 1642.41,-84 1642.41,-84 1642.41,-96 1642.41,-96 1642.41,-102 1636.41,-108 1630.41,-108"/>
<text text-anchor="middle" x="1575.91" y="-87.5" font-family="sans" font-size="10.00">captus_with_misc_align</text>
</g>
<!-- 20 -->
<g id="node20" class="node">
<title>20</title>
<path fill="none" stroke="#56d8d0" stroke-width="2" d="M1680.41,-252C1680.41,-252 1471.41,-252 1471.41,-252 1465.41,-252 1459.41,-246 1459.41,-240 1459.41,-240 1459.41,-228 1459.41,-228 1459.41,-222 1465.41,-216 1471.41,-216 1471.41,-216 1680.41,-216 1680.41,-216 1686.41,-216 1692.41,-222 1692.41,-228 1692.41,-228 1692.41,-240 1692.41,-240 1692.41,-246 1686.41,-252 1680.41,-252"/>
<text text-anchor="middle" x="1575.91" y="-231.5" font-family="sans" font-size="10.00">captus_with_misc_replace_temporary_paths</text>
</g>
<!-- 20&#45;&gt;19 -->
<g id="edge26" class="edge">
<title>20&#45;&gt;19</title>
<path fill="none" stroke="grey" stroke-width="2" d="M1575.91,-215.87C1575.91,-191.67 1575.91,-147.21 1575.91,-118.39"/>
<polygon fill="grey" stroke="grey" stroke-width="2" points="1579.41,-118.19 1575.91,-108.19 1572.41,-118.19 1579.41,-118.19"/>
</g>
<!-- 21&#45;&gt;19 -->
<g id="edge25" class="edge">
<title>21&#45;&gt;19</title>
<path fill="none" stroke="grey" stroke-width="2" d="M1478.43,-287.77C1467.51,-278.56 1455.79,-266.19 1449.91,-252 1443.79,-237.22 1443.76,-230.77 1449.91,-216 1468.16,-172.19 1510.06,-135.85 1540.54,-113.85"/>
<polygon fill="grey" stroke="grey" stroke-width="2" points="1542.65,-116.65 1548.81,-108.03 1538.62,-110.92 1542.65,-116.65"/>
</g>
<!-- 21&#45;&gt;20 -->
<g id="edge27" class="edge">
<title>21&#45;&gt;20</title>
<path fill="none" stroke="grey" stroke-width="2" d="M1520.96,-287.7C1529.97,-279.05 1541.03,-268.45 1550.85,-259.03"/>
<polygon fill="grey" stroke="grey" stroke-width="2" points="1553.28,-261.55 1558.07,-252.1 1548.43,-256.5 1553.28,-261.55"/>
</g>
<!-- 23 -->
<g id="node23" class="node">
<title>23</title>
<path fill="none" stroke="#5673d8" stroke-width="2" d="M1922.91,-252C1922.91,-252 1722.91,-252 1722.91,-252 1716.91,-252 1710.91,-246 1710.91,-240 1710.91,-240 1710.91,-228 1710.91,-228 1710.91,-222 1716.91,-216 1722.91,-216 1722.91,-216 1922.91,-216 1922.91,-216 1928.91,-216 1934.91,-222 1934.91,-228 1934.91,-228 1934.91,-240 1934.91,-240 1934.91,-246 1928.91,-252 1922.91,-252"/>
<text text-anchor="middle" x="1822.91" y="-231.5" font-family="sans" font-size="10.00">captus_with_misc_extract_summary_stats</text>
</g>
<!-- 21&#45;&gt;23 -->
<g id="edge30" class="edge">
<title>21&#45;&gt;23</title>
<path fill="none" stroke="grey" stroke-width="2" d="M1574.73,-289.29C1622.23,-278.9 1684.82,-265.21 1735.26,-254.17"/>
<polygon fill="grey" stroke="grey" stroke-width="2" points="1736.16,-257.56 1745.18,-252 1734.66,-250.72 1736.16,-257.56"/>
</g>
<!-- 22 -->
<g id="node22" class="node">
<title>22</title>
<path fill="none" stroke="#5682d8" stroke-width="2" d="M1830.41,-180C1830.41,-180 1683.41,-180 1683.41,-180 1677.41,-180 1671.41,-174 1671.41,-168 1671.41,-168 1671.41,-156 1671.41,-156 1671.41,-150 1677.41,-144 1683.41,-144 1683.41,-144 1830.41,-144 1830.41,-144 1836.41,-144 1842.41,-150 1842.41,-156 1842.41,-156 1842.41,-168 1842.41,-168 1842.41,-174 1836.41,-180 1830.41,-180"/>
<text text-anchor="middle" x="1756.91" y="-159.5" font-family="sans" font-size="10.00">captus_with_misc_wscore_filter</text>
</g>
<!-- 22&#45;&gt;19 -->
<g id="edge24" class="edge">
<title>22&#45;&gt;19</title>
<path fill="none" stroke="grey" stroke-width="2" d="M1712.63,-143.88C1687.56,-134.18 1656.02,-121.98 1629.55,-111.74"/>
<polygon fill="grey" stroke="grey" stroke-width="2" points="1630.63,-108.41 1620.05,-108.07 1628.11,-114.94 1630.63,-108.41"/>
</g>
<!-- 23&#45;&gt;22 -->
<g id="edge29" class="edge">
<title>23&#45;&gt;22</title>
<path fill="none" stroke="grey" stroke-width="2" d="M1806.6,-215.7C1798.6,-207.22 1788.84,-196.86 1780.09,-187.58"/>
<polygon fill="grey" stroke="grey" stroke-width="2" points="1782.45,-184.98 1773.04,-180.1 1777.35,-189.78 1782.45,-184.98"/>
</g>
<!-- 24 -->
<g id="node24" class="node">
<title>24</title>
<path fill="none" stroke="#8fd856" stroke-width="2" d="M2182.41,-108C2182.41,-108 2053.41,-108 2053.41,-108 2047.41,-108 2041.41,-102 2041.41,-96 2041.41,-96 2041.41,-84 2041.41,-84 2041.41,-78 2047.41,-72 2053.41,-72 2053.41,-72 2182.41,-72 2182.41,-72 2188.41,-72 2194.41,-78 2194.41,-84 2194.41,-84 2194.41,-96 2194.41,-96 2194.41,-102 2188.41,-108 2182.41,-108"/>
<text text-anchor="middle" x="2117.91" y="-87.5" font-family="sans" font-size="10.00">captus_with_outgroup_align</text>
</g>
<!-- 25 -->
<g id="node25" class="node">
<title>25</title>
<path fill="none" stroke="#56d8b9" stroke-width="2" d="M2232.91,-252C2232.91,-252 2002.91,-252 2002.91,-252 1996.91,-252 1990.91,-246 1990.91,-240 1990.91,-240 1990.91,-228 1990.91,-228 1990.91,-222 1996.91,-216 2002.91,-216 2002.91,-216 2232.91,-216 2232.91,-216 2238.91,-216 2244.91,-222 2244.91,-228 2244.91,-228 2244.91,-240 2244.91,-240 2244.91,-246 2238.91,-252 2232.91,-252"/>
<text text-anchor="middle" x="2117.91" y="-231.5" font-family="sans" font-size="10.00">captus_with_outgroup_replace_temporary_paths</text>
</g>
<!-- 25&#45;&gt;24 -->
<g id="edge32" class="edge">
<title>25&#45;&gt;24</title>
<path fill="none" stroke="grey" stroke-width="2" d="M2117.91,-215.87C2117.91,-191.67 2117.91,-147.21 2117.91,-118.39"/>
<polygon fill="grey" stroke="grey" stroke-width="2" points="2121.41,-118.19 2117.91,-108.19 2114.41,-118.19 2121.41,-118.19"/>
</g>
<!-- 26&#45;&gt;24 -->
<g id="edge33" class="edge">
<title>26&#45;&gt;24</title>
<path fill="none" stroke="grey" stroke-width="2" d="M2012.57,-287.77C2000.8,-278.72 1988.29,-266.48 1981.91,-252 1975.46,-237.36 1975.48,-230.65 1981.91,-216 2001.68,-170.99 2046.54,-135.06 2079.35,-113.48"/>
<polygon fill="grey" stroke="grey" stroke-width="2" points="2081.31,-116.38 2087.84,-108.04 2077.53,-110.49 2081.31,-116.38"/>
</g>
<!-- 26&#45;&gt;25 -->
<g id="edge34" class="edge">
<title>26&#45;&gt;25</title>
<path fill="none" stroke="grey" stroke-width="2" d="M2059.19,-287.7C2068.83,-279.05 2080.64,-268.45 2091.14,-259.03"/>
<polygon fill="grey" stroke="grey" stroke-width="2" points="2093.75,-261.39 2098.85,-252.1 2089.07,-256.18 2093.75,-261.39"/>
</g>
<!-- 28 -->
<g id="node28" class="node">
<title>28</title>
<path fill="none" stroke="#d8d356" stroke-width="2" d="M2496.41,-252C2496.41,-252 2275.41,-252 2275.41,-252 2269.41,-252 2263.41,-246 2263.41,-240 2263.41,-240 2263.41,-228 2263.41,-228 2263.41,-222 2269.41,-216 2275.41,-216 2275.41,-216 2496.41,-216 2496.41,-216 2502.41,-216 2508.41,-222 2508.41,-228 2508.41,-228 2508.41,-240 2508.41,-240 2508.41,-246 2502.41,-252 2496.41,-252"/>
<text text-anchor="middle" x="2385.91" y="-231.5" font-family="sans" font-size="10.00">captus_with_outgroup_extract_summary_stats</text>
</g>
<!-- 26&#45;&gt;28 -->
<g id="edge37" class="edge">
<title>26&#45;&gt;28</title>
<path fill="none" stroke="grey" stroke-width="2" d="M2122.35,-288.32C2173.24,-278.03 2238.68,-264.79 2291.63,-254.07"/>
<polygon fill="grey" stroke="grey" stroke-width="2" points="2292.6,-257.45 2301.7,-252.04 2291.21,-250.59 2292.6,-257.45"/>
</g>
<!-- 27 -->
<g id="node27" class="node">
<title>27</title>
<path fill="none" stroke="#a7d856" stroke-width="2" d="M2397.41,-180C2397.41,-180 2230.41,-180 2230.41,-180 2224.41,-180 2218.41,-174 2218.41,-168 2218.41,-168 2218.41,-156 2218.41,-156 2218.41,-150 2224.41,-144 2230.41,-144 2230.41,-144 2397.41,-144 2397.41,-144 2403.41,-144 2409.41,-150 2409.41,-156 2409.41,-156 2409.41,-168 2409.41,-168 2409.41,-174 2403.41,-180 2397.41,-180"/>
<text text-anchor="middle" x="2313.91" y="-159.5" font-family="sans" font-size="10.00">captus_with_outgroup_wscore_filter</text>
</g>
<!-- 27&#45;&gt;24 -->
<g id="edge31" class="edge">
<title>27&#45;&gt;24</title>
<path fill="none" stroke="grey" stroke-width="2" d="M2266.21,-143.97C2238.83,-134.19 2204.25,-121.84 2175.38,-111.52"/>
<polygon fill="grey" stroke="grey" stroke-width="2" points="2176.42,-108.18 2165.82,-108.11 2174.06,-114.77 2176.42,-108.18"/>
</g>
<!-- 28&#45;&gt;27 -->
<g id="edge36" class="edge">
<title>28&#45;&gt;27</title>
<path fill="none" stroke="grey" stroke-width="2" d="M2368.11,-215.7C2359.31,-207.14 2348.53,-196.66 2338.91,-187.3"/>
<polygon fill="grey" stroke="grey" stroke-width="2" points="2341.11,-184.57 2331.5,-180.1 2336.23,-189.58 2341.11,-184.57"/>
</g>
<!-- 29 -->
<g id="node29" class="node">
<title>29</title>
<path fill="none" stroke="#d8a456" stroke-width="2" d="M2687.41,-108C2687.41,-108 2534.41,-108 2534.41,-108 2528.41,-108 2522.41,-102 2522.41,-96 2522.41,-96 2522.41,-84 2522.41,-84 2522.41,-78 2528.41,-72 2534.41,-72 2534.41,-72 2687.41,-72 2687.41,-72 2693.41,-72 2699.41,-78 2699.41,-84 2699.41,-84 2699.41,-96 2699.41,-96 2699.41,-102 2693.41,-108 2687.41,-108"/>
<text text-anchor="middle" x="2610.91" y="-87.5" font-family="sans" font-size="10.00">captus_with_wscore_cutoff_align</text>
</g>
<!-- 30&#45;&gt;29 -->
<g id="edge38" class="edge">
<title>30&#45;&gt;29</title>
<path fill="none" stroke="grey" stroke-width="2" d="M2537.69,-287.73C2539.64,-257.34 2546.3,-192.89 2568.91,-144 2573.49,-134.09 2580.29,-124.39 2587.09,-116.05"/>
<polygon fill="grey" stroke="grey" stroke-width="2" points="2589.96,-118.08 2593.8,-108.2 2584.64,-113.52 2589.96,-118.08"/>
</g>
<!-- 32 -->
<g id="node32" class="node">
<title>32</title>
<path fill="none" stroke="#70d856" stroke-width="2" d="M2822.41,-252C2822.41,-252 2577.41,-252 2577.41,-252 2571.41,-252 2565.41,-246 2565.41,-240 2565.41,-240 2565.41,-228 2565.41,-228 2565.41,-222 2571.41,-216 2577.41,-216 2577.41,-216 2822.41,-216 2822.41,-216 2828.41,-216 2834.41,-222 2834.41,-228 2834.41,-228 2834.41,-240 2834.41,-240 2834.41,-246 2828.41,-252 2822.41,-252"/>
<text text-anchor="middle" x="2699.91" y="-231.5" font-family="sans" font-size="10.00">captus_with_wscore_cutoff_extract_summary_stats</text>
</g>
<!-- 30&#45;&gt;32 -->
<g id="edge42" class="edge">
<title>30&#45;&gt;32</title>
<path fill="none" stroke="grey" stroke-width="2" d="M2576.79,-287.88C2599.07,-278.31 2627.03,-266.3 2650.67,-256.15"/>
<polygon fill="grey" stroke="grey" stroke-width="2" points="2652.36,-259.23 2660.17,-252.07 2649.6,-252.8 2652.36,-259.23"/>
</g>
<!-- 31 -->
<g id="node31" class="node">
<title>31</title>
<path fill="none" stroke="#56d873" stroke-width="2" d="M2781.41,-180C2781.41,-180 2590.41,-180 2590.41,-180 2584.41,-180 2578.41,-174 2578.41,-168 2578.41,-168 2578.41,-156 2578.41,-156 2578.41,-150 2584.41,-144 2590.41,-144 2590.41,-144 2781.41,-144 2781.41,-144 2787.41,-144 2793.41,-150 2793.41,-156 2793.41,-156 2793.41,-168 2793.41,-168 2793.41,-174 2787.41,-180 2781.41,-180"/>
<text text-anchor="middle" x="2685.91" y="-159.5" font-family="sans" font-size="10.00">captus_with_wscore_cutoff_wscore_filter</text>
</g>
<!-- 31&#45;&gt;29 -->
<g id="edge39" class="edge">
<title>31&#45;&gt;29</title>
<path fill="none" stroke="grey" stroke-width="2" d="M2667.37,-143.7C2658.11,-135.05 2646.75,-124.45 2636.65,-115.03"/>
<polygon fill="grey" stroke="grey" stroke-width="2" points="2638.94,-112.37 2629.24,-108.1 2634.16,-117.49 2638.94,-112.37"/>
</g>
<!-- 32&#45;&gt;31 -->
<g id="edge41" class="edge">
<title>32&#45;&gt;31</title>
<path fill="none" stroke="grey" stroke-width="2" d="M2696.45,-215.7C2694.91,-207.98 2693.05,-198.71 2691.33,-190.11"/>
<polygon fill="grey" stroke="grey" stroke-width="2" points="2694.73,-189.22 2689.33,-180.1 2687.86,-190.6 2694.73,-189.22"/>
</g>
</g>
</svg>
